<?xml version="1.0" encoding="utf-8"?>
<!-- Generator: Adobe Illustrator 19.2.1, SVG Export Plug-In . SVG Version: 6.00 Build 0)  -->
<svg version="1.1" id="_x36_3f2dc0b-5d38-47ea-aaba-c386b0c12f47"
	 xmlns="http://www.w3.org/2000/svg" xmlns:xlink="http://www.w3.org/1999/xlink" x="0px" y="0px" viewBox="0 0 715.4 950.7"
	 style="enable-background:new 0 0 715.4 950.7;" xml:space="preserve">
<style type="text/css">
	.st0{fill:#5C69A5;}
	.st1{fill:#DDE0F1;}
	.st2{fill:#101132;}
	.st3{fill:#353F7B;}
	.st4{fill:#FFFFFF;}
	.st5{fill:#B8C1E2;}
</style>
<title>scrolldir-gh-logo</title>
<path class="st0" d="M309.3,220.6c32.2-6.1,65.2-6.1,97.4,0.1v-42.1l65.7,19.5L415.2,99L358,0l-57.2,99.1l-57.2,99.1l65.7-19.5
	V220.6L309.3,220.6z"/>
<path class="st0" d="M406.7,727.4c-32.2,6.2-65.2,6.2-97.4,0.1v44.6l-65.7-19.5l57.2,99.1l57.2,99.1l57.2-99.1l57.2-99.1l-65.7,19.5
	L406.7,727.4L406.7,727.4z"/>
<path class="st1" d="M16.2,565.6h149.3l2.2,4.4c53,104.9,181,147,285.9,94c40.6-20.5,73.5-53.4,94-94l2.2-4.4h149.3V382.7H549.9
	l-2.2-4.5c-53-104.9-181-147-285.9-94c-40.6,20.5-73.5,53.4-94,94l-2.2,4.4H16.2V565.6z"/>
<path class="st2" d="M63.2,503.7v-11.9h19.3v13.5c0,7.4,0.6,12.7,1.9,15.7s3.6,4.5,7.1,4.5s5.8-1.2,6.9-3.7s1.7-6.5,1.7-12.2
	c0.1-5.1-0.9-10.1-3-14.7c-2.5-4.8-5.8-9.3-9.6-13.1l-9.9-10.2c-4.3-4.4-7.9-9.5-10.7-15c-2.7-5.6-4-11.7-3.8-17.9
	c0-11,2.1-19.2,6.4-24.6c4.3-5.4,11.6-8,21.9-8c10.4,0,17.4,3.1,21.1,9.4s5.5,15.4,5.5,27.4v8.3H99.1v-9.6c0-6.5-0.6-11.1-1.7-13.9
	c-0.9-2.7-3.6-4.4-6.4-4.2c-3.2,0-5.4,1.1-6.8,3.2s-2.1,5.3-2.1,9.6c0,4.3,0.7,7.6,2.1,10.2c2.2,3.5,4.8,6.8,7.7,9.7l11,11.9
	c5.1,5.4,9.3,11.5,12.5,18.1c2.8,6.3,4.3,13.1,4.2,20c0,12.5-2.1,21.7-6.3,27.7c-4.2,6-11.6,9-22.1,9s-17.8-3.3-21.9-10
	C65.2,526.1,63.2,516.4,63.2,503.7z"/>
<path class="st2" d="M184,533.5c-4.6,6.2-11.8,9.3-21.7,9.3s-17.2-3.3-22.1-9.9c-4.9-6.6-7.3-16.1-7.3-28.5v-58.2
	c0-19.9,5.2-32.3,15.6-37.3c4.4-1.9,9.2-2.9,14-2.7c18.8,0,28.2,11.8,28.2,35.5V460H171v-17.1c0-6.9-0.6-11.8-1.8-14.8
	s-3.4-4.4-6.8-4.4c-3.1-0.2-6,1.7-7.1,4.7c-1.3,3.1-2,7.9-2,14.4v62.4c0,7.2,0.6,12.3,1.9,15.4c1.6,3.8,5.9,5.6,9.7,4.1
	c1.9-0.8,3.4-2.3,4.1-4.1c1.3-3.1,1.9-8.3,1.9-15.6v-19.1h20v18.9C190.9,517.7,188.6,527.3,184,533.5z"/>
<path class="st2" d="M234.3,478.5l-6.5-0.3v63h-20.4V407.6H241c7,0,12.2,1.4,15.6,4.2c3.6,3,6,7.2,6.8,11.8
	c1.2,6.5,1.8,13.1,1.6,19.7c0,8.1-0.9,14.3-2.6,18.6c-1.7,4.2-5.2,7.4-9.6,8.6c4.6,0.8,7.8,3.9,9.6,9.3c1.8,5.4,2.7,16.7,2.7,33.8
	c0,17.1,0.3,26.3,0.8,27.6h-20.3c-0.5-1-0.8-17-0.8-47.9c0-5.9-0.7-9.9-2.1-11.8C241.5,479.6,238.6,478.6,234.3,478.5z M227.9,462.4
	h8.1c2.6,0,4.5-0.6,5.7-1.8c1.2-1.2,2.1-3.2,2.6-6c0.6-4.3,0.8-8.7,0.7-13v-0.8c0-7.2-0.6-12-1.8-14.2s-4-3.3-8.4-3.3h-6.9
	L227.9,462.4L227.9,462.4z"/>
<path class="st2" d="M334.5,533.1c-4.7,6.4-12.1,9.6-22.4,9.6s-17.8-3.2-22.5-9.7c-4.8-6.5-7.2-16.2-7.2-29.2v-61.1
	c0-24.5,10-36.7,30-36.7c10.3,0,17.8,3.1,22.3,9.3s6.8,15.4,6.8,27.4v61.1C341.5,517,339.2,526.7,334.5,533.1z M304.7,520.5
	c1.2,3.1,3.6,4.6,7.3,4.6s6.1-1.6,7.3-4.7c1.2-3.2,1.8-8.6,1.8-16.3v-62.3c0-6.3-0.6-10.9-1.8-13.9s-3.5-4.4-7-4.4s-5.9,1.5-7.3,4.4
	s-2.1,7.5-2.1,13.8V504C302.9,512,303.5,517.4,304.7,520.5L304.7,520.5z"/>
<path class="st2" d="M359.9,541.2V407.6h20.3v116.3H406v17.3H359.9z"/>
<path class="st2" d="M417.7,541.2V407.6H438v116.3h25.7v17.3H417.7z"/>
<path class="st2" d="M475.4,541.2V407.6h30c9.8,0,16.9,2.9,21.4,8.7s6.6,14.3,6.6,25.6l0.1,60.2c0,13.5-2.2,23.3-6.7,29.6
	s-11.8,9.4-22.1,9.4L475.4,541.2L475.4,541.2z M495.8,525.4h6.7c3.7,0,6.5-1.2,8.2-3.6c1.7-2.4,2.5-6.9,2.5-13.4l-0.1-66
	c0-6.9-0.8-11.9-2.5-14.8s-4.6-4.4-8.8-4.4h-6L495.8,525.4L495.8,525.4z"/>
<path class="st2" d="M552.5,541.2V407.6h20.4v133.6H552.5z"/>
<path class="st2" d="M620.6,478.5l-6.5-0.3v63h-20.3V407.6h33.6c7,0,12.2,1.4,15.6,4.2c3.6,3,6,7.2,6.8,11.8
	c1.2,6.5,1.8,13.1,1.6,19.7c0,8.1-0.9,14.3-2.6,18.6c-1.7,4.2-5.2,7.4-9.6,8.6c4.6,0.8,7.8,3.9,9.6,9.3s2.7,16.7,2.7,33.8
	c0,17.1,0.3,26.3,0.8,27.6H632c-0.5-1-0.8-17-0.8-47.9c0-5.9-0.7-9.9-2.1-11.8C627.7,479.6,624.9,478.6,620.6,478.5z M614.1,462.4
	h8.1c2.6,0,4.5-0.6,5.7-1.8c1.2-1.2,2.1-3.2,2.6-6c0.6-4.3,0.8-8.7,0.7-13v-0.8c0-7.2-0.6-12-1.8-14.2s-4-3.3-8.4-3.3h-6.9
	L614.1,462.4L614.1,462.4z"/>
<path class="st3" d="M572.7,366.8c-59.2-119.3-203.9-168-323.2-108.8c-47.2,23.4-85.4,61.6-108.8,108.8H0V582h141.3
	C201,701,345.9,749.1,464.9,689.4c46.4-23.3,84-60.9,107.3-107.3h143.1V366.8H572.7z M699.2,565.8l-341.5-0.3v4.9h189.9
	c-36.1,71.8-109.6,117-189.9,116.7c-80.7,0-156.7-49.6-193.2-121.7l-148.3,0.4V383l149.3-0.1h177v-3.2l-174.8,0.5
	c36.5-72.1,109.2-118.5,190-118.5c80.4-0.2,153.9,45,190,116.9l2.2,4.4h149.3V565.8z"/>
<circle class="st4" cx="409.2" cy="143.2" r="9.8"/>
<circle class="st4" cx="398.2" cy="123.4" r="6.5"/>
<circle class="st4" cx="315.9" cy="821.7" r="9.8"/>
<circle class="st4" cx="304.8" cy="801.8" r="6.5"/>
<path class="st5" d="M529.1,378.7H424.6c0,0-15.1-100.4-66.9-102C357.7,276.8,474,284.9,529.1,378.7z"/>
<path class="st5" d="M186.7,568.5h104.6c0,0,15.1,100.3,66.9,102C358.1,670.4,241.8,662.3,186.7,568.5z"/>
<circle class="st4" cx="266.7" cy="609.6" r="9.8"/>
</svg>
